<?xml version="1.0" encoding="UTF-8"?>
<svg id="_圖層_1" data-name="圖層 1" xmlns="http://www.w3.org/2000/svg" version="1.1" viewBox="0 0 32 32">
  <defs>
    <style>
      .cls-1 {
        fill: #000;
        stroke-width: 0px;
      }
    </style>
  </defs>
  <g id="_94.Trash" data-name="94.Trash">
    <path class="cls-1" d="M28.1,3h-7.1l-.6-1.1c-.2-.5-.7-.8-1.3-.8h-6.7c-.5,0-1,.3-1.3.8l-.6,1.1H3.6c-.5,0-.9.4-.9.9v1.9c0,.5.4.9.9.9h24.5c.5,0,.9-.4.9-.9v-1.9c0-.5-.4-.9-.9-.9Z"/>
    <path class="cls-1" d="M5.8,28.6c0,1.5,1.3,2.7,2.8,2.7h14.5c1.5,0,2.7-1.2,2.8-2.7l1.2-20H4.5l1.2,20Z"/>
  </g>
</svg>