<?xml version="1.0" encoding="UTF-8"?>
<svg id="_圖層_1" data-name="圖層 1" xmlns="http://www.w3.org/2000/svg" version="1.1" viewBox="0 0 32 32">
  <defs>
    <style>
      .cls-1 {
        fill: #000;
        stroke-width: 0px;
      }
    </style>
  </defs>
  <path class="cls-1" d="M25.8,1.6l4.7,4.7c.4.4.6.9.6,1.3s-.2,1-.6,1.3l-2.6,2.6-7.4-7.4,2.6-2.6c.4-.4.9-.6,1.3-.6s1,.2,1.3.6h0ZM6.1,18.3l7.6,7.6,12.9-12.9-1.2-1.2-1.3-1.3-2.5-2.5-1.3-1.3-1.2-1.2-12.9,12.9h0ZM.8,30.1l1.1-2.9,3.1,3.1-2.9,1.1h0c-.2,0-.4,0-.6,0-.5-.2-.7-.7-.6-1.2h0ZM2.5,25.2l2-5.5c0,0,0-.1,0-.2l7.9,7.9s0,0-.1,0l-5.6,2-4.3-4.3Z"/>
</svg>