<?xml version="1.0" encoding="UTF-8"?>
<svg id="_圖層_1" data-name="圖層 1" xmlns="http://www.w3.org/2000/svg" version="1.1" viewBox="0 0 32 32">
  <defs>
    <style>
      .cls-1 {
        fill: #000;
        stroke-width: 0px;
      }
    </style>
  </defs>
  <g id="Layer_2" data-name="Layer 2">
    <g id="Layer_1_copy_10" data-name="Layer 1 copy 10">
      <g id="_57" data-name=" 57">
        <path class="cls-1" d="M14.4,26h-6.4c-1.6,0-2.8-1.3-2.8-2.8v-13.9c0-1.6,1.3-2.8,2.8-2.8h6.4c1.3,0,2.3-1,2.3-2.3s-1-2.3-2.3-2.3h-6.4c-4.1,0-7.5,3.4-7.5,7.5v13.9c0,4.1,3.4,7.5,7.5,7.5h6.4c1.3,0,2.3-1,2.3-2.3s-1-2.3-2.3-2.3h0Z"/>
        <path class="cls-1" d="M30.4,14.5l-5.8-5.8c-.9-.9-2.4-.9-3.3,0s-.9,2.4,0,3.3l1.8,1.8h-10.2c-1.3,0-2.3,1.1-2.3,2.4,0,1.3,1,2.3,2.3,2.3h10l-1.7,1.7c-.9.9-.9,2.4,0,3.3s2.4.9,3.3,0l5.7-5.7c.9-.9.9-2.4,0-3.3t0,0h0Z"/>
      </g>
    </g>
  </g>
</svg>