<?xml version="1.0" encoding="UTF-8"?>
<svg id="_圖層_1" data-name="圖層 1" xmlns="http://www.w3.org/2000/svg" version="1.1" viewBox="0 0 32 32">
  <defs>
    <style>
      .cls-1 {
        fill: #000;
        fill-rule: evenodd;
        stroke-width: 0px;
      }
    </style>
  </defs>
  <path class="cls-1" d="M5.8,29.2c.3.3.7.5,1.1.5s.9-.2,1.1-.5l7.7-7.7,7.7,7.7c.3.3.7.5,1.1.5s.9-.2,1.1-.5l2.4-2.4c.3-.3.5-.7.5-1.1s-.2-.9-.5-1.1l-7.7-7.7,7.7-7.7c.3-.3.5-.7.5-1.1s-.2-.9-.5-1.1l-2.4-2.4c-.3-.3-.7-.5-1.1-.5s-.9.2-1.1.5l-7.7,7.7-7.7-7.7c-.3-.3-.7-.5-1.1-.5s-.9.2-1.1.5l-2.4,2.4c-.3.3-.5.7-.5,1.1s.2.9.5,1.1l7.7,7.7-7.7,7.7c-.3.3-.5.7-.5,1.1s.2.9.5,1.1l2.4,2.4Z"/>
</svg>