<?xml version="1.0" encoding="UTF-8"?>
<svg id="_圖層_1" data-name="圖層 1" xmlns="http://www.w3.org/2000/svg" version="1.1" viewBox="0 0 32 32">
  <defs>
    <style>
      .cls-1 {
        fill: #000;
        stroke-width: 0px;
      }
    </style>
  </defs>
  <path class="cls-1" d="M16,6.3c-6.6,0-12.2,4.1-14.5,9.9,2.3,5.8,7.9,9.9,14.5,9.9s12.2-4.1,14.5-9.9c-2.3-5.8-7.9-9.9-14.5-9.9ZM16.1,22.8c-3.7,0-6.7-3-6.6-6.6s3-6.5,6.5-6.5,6.7,3,6.6,6.6c0,3.6-3,6.5-6.5,6.5ZM16,12.2c-2.2,0-4,1.8-4,4,0,2.2,1.8,4,4,4s4-1.8,4-4-1.8-4-4-4Z"/>
</svg>