<?xml version="1.0" encoding="UTF-8"?>
<svg id="_圖層_1" data-name="圖層 1" xmlns="http://www.w3.org/2000/svg" version="1.1" viewBox="0 0 18 18">
  <defs>
    <style>
      .cls-1 {
        fill: #231815;
        fill-rule: evenodd;
        stroke-width: 0px;
      }
    </style>
  </defs>
  <path class="cls-1" d="M9.1.5C4.4.5.6,4.3.6,9s3.8,8.5,8.5,8.5,8.5-3.8,8.5-8.5S13.8.5,9.1.5h0ZM9.1,3.7c.6,0,1.1.5,1.1,1.1v3.2h3.2c.6,0,1.1.5,1.1,1.1s-.5,1.1-1.1,1.1h-3.2v3.2c0,.6-.5,1.1-1.1,1.1s-1.1-.5-1.1-1.1v-3.2h-3.2c-.6,0-1.1-.5-1.1-1.1s.5-1.1,1.1-1.1h3.2v-3.2c0-.6.5-1.1,1.1-1.1Z"/>
</svg>