<?xml version="1.0" encoding="UTF-8"?>
<svg id="_圖層_1" data-name="圖層 1" xmlns="http://www.w3.org/2000/svg" version="1.1" viewBox="0 0 32 32">
  <defs>
    <style>
      .cls-1 {
        fill: #000;
        fill-rule: evenodd;
        stroke-width: 0px;
      }
    </style>
  </defs>
  <path class="cls-1" d="M16.1,0C7.2,0,.1,7.1.1,15.9s7.1,15.9,15.9,15.9,15.9-7.1,15.9-15.9S24.9,0,16.1,0h0ZM16.1,6c1.1,0,2,.9,2,2v6h6c1.1,0,2,.9,2,2s-.9,2-2,2h-6v6c0,1.1-.9,2-2,2s-2-.9-2-2v-6h-6c-1.1,0-2-.9-2-2s.9-2,2-2h6v-6c0-1.1.9-2,2-2Z"/>
</svg>